<?xml version="1.0" encoding="UTF-8"?>
<svg version="1.1" viewBox="0 0 2000 1414" width="1280" height="1280" xmlns="http://www.w3.org/2000/svg">
<path transform="translate(1292,504)" d="m0 0h107l25 1 13 4 11 8 7 12 4 17v103l-1 17-3 12-6 9-7 6-13 7h-2l3 8 8 12 4 7 18 28 14 23-1 5h-76l-4-4-10-16-11-17-10-15-12-19-7-11-2-1h-32l-1 2-1 79-3 2h-63l-2-4v-140l1-50 1-1h61l5 1 1 40 80-1 1-22v-30l-7-2h-141l-2-3v-63l1-3z" fill="#FEFEFE"/>
<path transform="translate(791,503)" d="m0 0h60l96 1 10 2 10 5 10 9 6 11 2 11v118l-3 15-4 9-7 8-11 5-19 3h-106l-1 81-2 2h-63l-3-3v-190l3-2h34l31 1 1 26 1 12 1 1h78l1-1v-51l-1-1-97-1-50-1-2-2v-63l2-3z" fill="#FEFEFE"/>
<path transform="translate(1156,503)" d="m0 0 10 1 10 3 10 5 11 8 7 9 4 8 3 11 1 9 1 35v47l-1 14-2 4-5 1h-56l-5-2-2-39-5 5-8 11-5 9-9 14-5 9-1 5 9 1h90l3 1 1 2v104l-3 5h-63l-2-2-1-34-1-5h-81l-10 16-7 11-8 12-2 2h-76l-2-3 9-15 25-40 7-10 5-9 9-14 15-24 6-9 7-11 11-18 11-17 9-14 12-19 9-15 14-23 8-11 9-11 14-11 9-4z" fill="#FEFEFE"/>
<path transform="translate(277,503)" d="m0 0h114l25 1 11 2 8 6 3 3 2 5v10l-4 9-4 5-9 4-247 1-1 1v108h35l1-3v-44l2-9 5-5 8-3h128l7 2 3 3v6l-5 5-15 2-9 1h-108v24l1 31 2 1h73l8 4 3 4-1 6-4 4-8 2h-72l-2 4v15l1 34 121 1 11 2 2 2v8l-3 5-5 2h-122l-12-3-6-4-3-9v-41l-1-2-36-1-19-2-10-4-7-6-4-8-3-12v-131l2-16 3-8 4-6 5-3 11-2z" fill="#FEFEFE"/>
<path transform="translate(571,587)" d="m0 0h45l12 1 7 4 11 10v2l4 2 13 13 9 10 15 16 9 11 5 5 9 10 7 8 9 11 8 10 8 15 2 5 3 19-1 12-4 13-7 9-6 5-10 4-5 1h-151l-6-3-11-17-7-10-18-27-4-7 1-5 67-1h59l6-1-2-5-7-9-8-7-5-5-2-4-3-1-7-8-18-20-15-15-7-8-9-10-5-6-5-5-11-12-4-5v-3l3-1z" fill="#FEFEFE"/>
<path transform="translate(1661,504)" d="m0 0h41l2 1-1 7-12 20-11 17-12 19-10 15-16 25-5 7-2 5 1 8 15 25 8 12 16 25 13 20 11 17 24 38 7 12v5l-2 1h-73l-6-5-7-11-9-14-8-12-7-11-11-17-11-18-9-14-7-11-7-14-1-8v-30l1-26 4-11 7-11 10-15 12-19 11-17 8-12 2-2z" fill="#FEFEFE"/>
<path transform="translate(359,657)" d="m0 0h56l10 3 6 4 4 4 3 8 2 12 1 49v76l-2 15-3 7-6 7-8 3-9 1-99 1h-101l-42-1-21-1-7-3-5-5-2-6v-12l3-7 8-6 12-2h88l79 1h35l30-1 5-1 1-3v-33l-1-67-3-1h-34l-13-2-8-5-3-5-2-6 1-9 3-6 8-6 6-2z" fill="#FEFEFE"/>
<path transform="translate(1492,505)" d="m0 0h66l1 2v272l-1 3-2 1h-62l-3-2v-274z" fill="#FEFEFE"/>
<path transform="translate(577,504)" d="m0 0h111l11 1 9 11 13 19 11 17 11 18v3l-2 1h-211l-3-3v-34l3-12 5-9 8-6 11-4 5-1z" fill="#FEFEFE"/>
<path transform="translate(1812,503)" d="m0 0h10l5 3 4 4 5 17 6 29 1 3h2l4-14 3-14 4-25 3-2 23 1 1 2v80l-1 2h-12l-2-1-1-52-1-1-4 10-3 13-4 24-3 6-1 1h-17l-2-3-9-46-2-5-1 1-1 12v34l-3 6-2 1h-10l-1-1-1-80 1-3z" fill="#FEFEFE"/>
<path transform="translate(801,820)" d="m0 0h28l8 9 18 22 11 13 7-3 3-4h2v-2h2l2-4 9-9 9-11 10-11h25l1 1v52l-2 2h-14l-2-2-1-40-5 3-9 9-7 8-9 10-7 8-4 3-8 1-11-3-8-7-9-12-8-8-10-13-3-1-1 31-1 11-3 2h-11l-3-3v-51z" fill="#FEFEFE"/>
<path transform="translate(1356,820)" d="m0 0h86l10 2 10 5 4 6-1 6-6 5-13 4-8 2 3 3 16 8 13 8 2 2-1 4-14-1-9-3-10-6-11-7-7-3-14-3-16-1h-17l-1 22-3 2h-13l-3-5 1-49zm38 4-16 1-5 2-1 2v10l2 5 16 1h27l15-2 10-3 4-3-1-5-5-4-11-3-7-1z" fill="#FEFEFE"/>
<path transform="translate(1023,820)" d="m0 0h12l14 4 17 9 15 10 13 8 15 8 6 1 1-39 1-1h15l1 1 1 16v34l-1 3-7 1-15-3-16-7-14-8-24-16-12-6-5-1-1 39-3 2h-13l-2-4v-23l1-27z" fill="#FEFEFE"/>
<path transform="translate(1522,819)" d="m0 0h57l17 1 2 1-1 4-1 1-78 1-1 1v13l2 1h66l7 2 1 3-1 2-72 1-3 2v14l1 1 80 1 3 1v4l-5 2-12 1h-43l-41-1-3-3v-49l2-3z" fill="#FEFEFE"/>
<path transform="translate(1668,818)" d="m0 0h18l23 3 12 4 6 4 3 5-5 2-9-1-14-7-10-2h-25l-12 2-6 3v6l10 3 4 1 50 4 15 5 6 5 1 6-4 5-12 6-18 4h-38l-19-4-12-5-6-5 1-5h11l6 3 5 4 5 2 13 2h32l13-3 4-3-2-6-8-3-48-5-15-3-10-4-4-4v-6l5-5 5-3 12-3z" fill="#FEFEFE"/>
<path transform="translate(1206,820)" d="m0 0h16l10 5 7 6 7 8 6 6v2l4 2 10 9 8 7 4 6-1 4h-13l-6-4-9-9-6-3-11-1h-40l-10 4-12 13h-15l-2-3 4-6 12-12h2l2-4 26-26zm7 8-17 17-2 6 1 1h39l1-5-5-5-4-5-8-7z" fill="#FEFEFE"/>
<path transform="translate(658,820)" d="m0 0h17l1 1 1 30 3 10 5 4 12 3h32l13-3 4-2 2-5 1-3 1-32 2-3h16l1 1v33l-3 8-5 5-8 4-6 2-23 3h-25l-21-3-12-5-6-7-3-9v-28z" fill="#FEFEFE"/>
<path transform="translate(1728,504)" d="m0 0h42l19 1 1 2v7l-3 4h-20l-1 58-1 12-1 1h-11l-3-3-1-66-2-1-19-2-2-4v-6z" fill="#FEFEFE"/>
<path transform="translate(547,820)" d="m0 0h16l1 1 1 19v23l1 4h50l13 1 4 2-1 5h-85l-1-1v-53z" fill="#FEFEFE"/>
<path transform="translate(972,820)" d="m0 0h14l2 1v51l-3 3h-11l-4-2-1-3v-44l1-5z" fill="#FEFEFE"/>
<path transform="translate(1303,820)" d="m0 0h15l2 3v29l-1 21-3 2h-12l-2-1-1-3v-48z" fill="#FEFEFE"/>
</svg>
